<svg id="Capa_1" data-name="Capa 1" xmlns="http://www.w3.org/2000/svg" viewBox="0 0 24 24"><defs><style>.cls-1{fill:#4268b2;}.cls-2{fill:#fff;}</style></defs><rect class="cls-1" width="24" height="24"/><path class="cls-2" d="M22.67,0H1.32A1.32,1.32,0,0,0,0,1.32H0V22.68A1.32,1.32,0,0,0,1.32,24h11.5V14.71H9.69V11.08h3.13V8.41c0-3.1,1.89-4.79,4.66-4.79a21.74,21.74,0,0,1,2.79.15V7H18.36c-1.51,0-1.8.71-1.8,1.76v2.32h3.59l-.47,3.62H16.56V24h6.12A1.32,1.32,0,0,0,24,22.68h0V1.32A1.32,1.32,0,0,0,22.68,0Z" transform="translate(0 0)"/></svg>